<svg xmlns="http://www.w3.org/2000/svg" viewBox="0 0 64 64"><defs><linearGradient id="g" x1="0" y1="0" x2="1" y2="1"><stop stop-color="#ffd84d"/><stop offset="1" stop-color="#d99b18"/></linearGradient></defs><path fill="none" stroke="url(#g)" stroke-width="7" stroke-linecap="round" d="M20 12h24v14c0 10-5 17-12 17S20 36 20 26z"/><path fill="none" stroke="#ffd84d" stroke-width="6" stroke-linecap="round" d="M20 17H10c0 10 5 15 13 15M44 17h10c0 10-5 15-13 15"/><path fill="#ffd84d" d="M27 43h10v8H27zM21 55h22v5H21z"/><circle cx="32" cy="24" r="5" fill="#fff2a8"/><path fill="#d99b18" d="m32 19 1.5 3.2 3.5.5-2.5 2.4.6 3.5-3.1-1.7-3.1 1.7.6-3.5-2.5-2.4 3.5-.5z"/></svg>